HIERARCHY
ROOT Hips
{
 OFFSET 0.000000 0.000000 0.000000
 CHANNELS 6 Xposition Yposition Zposition Yrotation Xrotation Zrotation
 JOINT Chest
 {
  OFFSET 0.000000 10.483295 0.018402
  CHANNELS 3 Yrotation Xrotation Zrotation
  JOINT Chest2
  {
   OFFSET 0.000000 12.196575 -0.033437
   CHANNELS 3 Yrotation Xrotation Zrotation
   JOINT Chest3
   {
    OFFSET 0.000000 11.021500 0.000000
    CHANNELS 3 Yrotation Xrotation Zrotation
    JOINT Chest4
    {
     OFFSET 0.000000 11.021400 0.000000
     CHANNELS 3 Yrotation Xrotation Zrotation
     JOINT Neck
     {
      OFFSET 0.000000 15.252000 0.000000
      CHANNELS 3 Yrotation Xrotation Zrotation
      JOINT Head
      {
       OFFSET 0.000000 10.245098 -0.079700
       CHANNELS 3 Yrotation Xrotation Zrotation
       End Site
       {
        OFFSET 0.000000 19.813991 -0.041600
       }
      }
     }
     JOINT RightCollar
     {
      OFFSET -3.058700 8.489100 0.000000
      CHANNELS 3 Yrotation Xrotation Zrotation
      JOINT RightShoulder
      {
       OFFSET -13.730400 0.000000 0.000000
       CHANNELS 3 Yrotation Xrotation Zrotation
       JOINT RightElbow
       {
        OFFSET -30.364119 -0.000000 0.000000
        CHANNELS 3 Yrotation Xrotation Zrotation
        JOINT RightWrist
        {
         OFFSET -24.952755 0.000000 0.004743
         CHANNELS 3 Yrotation Xrotation Zrotation
         End Site
         {
          OFFSET -18.738600 0.000000 0.000000
         }
        }
       }
      }
     }
     JOINT LeftCollar
     {
      OFFSET 3.058700 8.489100 0.000000
      CHANNELS 3 Yrotation Xrotation Zrotation
      JOINT LeftShoulder
      {
       OFFSET 13.730400 0.000000 0.000000
       CHANNELS 3 Yrotation Xrotation Zrotation
       JOINT LeftElbow
       {
        OFFSET 30.364119 -0.000000 0.000000
        CHANNELS 3 Yrotation Xrotation Zrotation
        JOINT LeftWrist
        {
         OFFSET 24.952755 -0.000000 0.004743
         CHANNELS 3 Yrotation Xrotation Zrotation
         End Site
         {
          OFFSET 18.738600 -0.000000 -0.000000
         }
        }
       }
      }
     }
    }
   }
  }
 }
 JOINT RightHip
 {
  OFFSET -8.366805 -0.090331 -0.009218
  CHANNELS 3 Yrotation Xrotation Zrotation
  JOINT RightKnee
  {
   OFFSET 0.000000 -46.515684 0.008890
   CHANNELS 3 Yrotation Xrotation Zrotation
   JOINT RightAnkle
   {
    OFFSET 0.000000 -42.864747 0.048728
    CHANNELS 3 Yrotation Xrotation Zrotation
    JOINT RightToe
    {
     OFFSET 0.000000 -10.045100 15.254100
     CHANNELS 3 Yrotation Xrotation Zrotation
     End Site
     {
      OFFSET 0.000000 -1.537700 6.138800
     }
    }
   }
  }
 }
 JOINT LeftHip
 {
  OFFSET 8.366805 -0.090331 -0.009218
  CHANNELS 3 Yrotation Xrotation Zrotation
  JOINT LeftKnee
  {
   OFFSET 0.000000 -46.515684 0.008890
   CHANNELS 3 Yrotation Xrotation Zrotation
   JOINT LeftAnkle
   {
    OFFSET 0.000000 -42.864747 0.048728
    CHANNELS 3 Yrotation Xrotation Zrotation
    JOINT LeftToe
    {
     OFFSET 0.000000 -10.045100 15.254100
     CHANNELS 3 Yrotation Xrotation Zrotation
     End Site
     {
      OFFSET 0.000000 -1.537700 6.138800
     }
    }
   }
  }
 }
}
MOTION
Frames: 8
Frame Time: 0.004167
178.272588 98.367530 -928.193071 -60.564688 -9.469941 -3.668438 5.985411 10.246839 -0.247912 2.673764 4.537340 -0.219649 2.673845 4.537198 -0.219711 2.006009 3.402067 -0.184550 3.527813 16.414542 -4.001186 7.965953 -5.303610 -8.677041 -5.725562 -3.560311 4.460491 8.543791 10.026791 74.640581 29.542040 13.254734 12.673724 -10.538336 13.384732 -24.870996 -4.321516 -4.948354 -4.733924 0.866779 0.064535 -77.159610 -39.864634 -3.423142 -12.434848 2.739383 19.462304 18.851170 6.179356 -9.369524 0.326929 -6.428428 55.643690 -20.993668 -1.542888 15.104329 9.120525 1.139955 2.004025 1.758305 13.018006 8.343489 -10.634666 0.908290 7.032189 1.704543 12.099248 -9.077370 10.860640 0.003427 -0.104929 0.216992
178.093590 98.372443 -928.064754 -59.816236 -9.418661 -3.644504 5.968543 10.254192 -0.254529 2.667933 4.539830 -0.215734 2.667988 4.539794 -0.215712 2.001581 3.403864 -0.181531 3.496846 16.395195 -3.968371 7.898974 -5.346252 -8.607453 -5.717445 -3.552333 4.454075 8.508739 10.115521 74.683828 29.347912 13.317492 12.617538 -10.561632 13.390052 -24.872808 -4.354982 -4.973334 -4.738140 0.799574 -0.046580 -77.138488 -40.345725 -3.442291 -12.638618 2.756919 19.475421 18.836733 6.152306 -9.511023 0.383279 -6.275065 55.217463 -21.047394 -1.492762 14.383542 8.924392 1.124295 2.117180 1.743483 12.668850 8.534630 -10.661579 0.735421 6.992733 1.628396 11.851207 -9.107909 10.855091 0.002163 -0.104171 0.205741
177.916513 98.376689 -927.936515 -59.070480 -9.363287 -3.626880 5.953568 10.258908 -0.256163 2.661879 4.541925 -0.212206 2.661886 4.542029 -0.212232 1.996945 3.405616 -0.178905 3.467101 16.376540 -3.935568 7.834278 -5.387322 -8.538167 -5.706326 -3.545485 4.451074 8.469846 10.201573 74.721596 29.157311 13.383577 12.568572 -10.586525 13.395128 -24.878821 -4.385776 -4.994679 -4.740846 0.721949 -0.158864 -77.115936 -40.818173 -3.465841 -12.830185 2.775568 19.489947 18.827681 6.112990 -9.652726 0.448857 -6.089975 54.776864 -21.078218 -1.442210 13.656309 8.739567 2.162787 -1.924549 5.655597 12.330665 8.716365 -10.682934 0.549839 6.957970 1.554900 11.621887 -9.141207 10.850262 0.000828 -0.103558 0.194218
177.742726 98.380337 -927.808560 -58.329084 -9.304513 -3.615127 5.941848 10.260684 -0.253015 2.655798 4.544057 -0.208606 2.655755 4.544127 -0.208611 1.992386 3.407272 -0.176153 3.438982 16.359043 -3.903622 7.772415 -5.425856 -8.470674 -5.694264 -3.539078 4.449397 8.425328 10.283190 74.755158 28.970367 13.456524 12.526958 -10.611096 13.400669 -24.887048 -4.411464 -5.011453 -4.740724 0.632574 -0.272888 -77.093602 -41.281829 -3.494224 -13.013017 2.796240 19.504540 18.824200 6.057633 -9.796960 0.527769 -5.859737 54.324303 -21.081599 -1.394462 12.935298 8.556472 2.705132 -4.555354 8.377156 12.005346 8.890922 -10.694975 0.353146 6.927704 1.481669 11.382950 -9.174748 10.850043 -0.001550 -0.100864 0.181955
177.569879 98.384107 -927.686465 -57.594595 -9.243322 -3.618836 5.939498 10.253337 -0.230854 2.649555 4.546720 -0.204424 2.649556 4.546717 -0.204386 1.987688 3.409258 -0.172890 3.411949 16.341929 -3.872442 7.713195 -5.463638 -8.404891 -5.683345 -3.536598 4.447850 8.375696 10.356800 74.786918 28.785263 13.537274 12.493306 -10.632653 13.407284 -24.895829 -4.434895 -5.021140 -4.739438 0.534941 -0.391939 -77.071067 -41.738977 -3.526435 -13.184080 2.814312 19.521880 18.829053 5.991680 -9.950744 0.635176 -5.582825 53.851401 -21.045861 -1.357771 12.246753 8.353689 2.980208 -6.376678 10.334191 11.687801 9.052988 -10.688737 0.154690 6.902464 1.410487 11.158584 -9.215960 10.850258 -0.003044 -0.091966 0.167977
177.399306 98.387585 -927.559793 -56.854654 -9.186618 -3.612420 5.928078 10.258534 -0.224851 2.644067 4.549488 -0.200752 2.644113 4.549439 -0.200695 1.983496 3.411327 -0.170215 3.386325 16.324868 -3.841075 7.656253 -5.500973 -8.339350 -5.675957 -3.534023 4.449796 8.321159 10.429419 74.813236 28.605607 13.624256 12.467144 -10.657149 13.414538 -24.906407 -4.457130 -5.024596 -4.731606 0.432133 -0.516684 -77.051902 -42.182981 -3.562662 -13.349269 2.834598 19.536071 18.835739 5.911741 -10.089632 0.730964 -5.263847 53.374134 -20.980263 -1.322364 11.552651 8.177970 3.066341 -7.698291 11.749438 11.372596 9.218510 -10.693044 -0.053404 6.883818 1.341450 10.963619 -9.258090 10.848432 -0.005044 -0.089961 0.155636
177.230818 98.390802 -927.431990 -56.117811 -9.128930 -3.609179 5.918304 10.264998 -0.216548 2.638989 4.552504 -0.197645 2.639040 4.552472 -0.197471 1.979684 3.413514 -0.167794 3.361832 16.307090 -3.809562 7.601570 -5.539642 -8.274023 -5.670142 -3.534300 4.453383 8.271524 10.501123 74.837040 28.430436 13.708643 12.444131 -10.680551 13.421704 -24.916336 -4.480126 -5.020330 -4.719206 0.324775 -0.649293 -77.034890 -42.617073 -3.605091 -13.504426 2.855515 19.550262 18.847449 5.816939 -10.226619 0.838998 -4.892401 52.885421 -20.879984 -1.300745 10.890686 8.007297 3.037235 -8.720411 12.779873 11.066035 9.379933 -10.692871 -0.264286 6.870041 1.276906 10.760536 -9.300481 10.846291 -0.007549 -0.087636 0.144340
177.065450 98.393913 -927.302925 -55.382394 -9.069930 -3.609017 5.909608 10.271723 -0.205419 2.634152 4.555858 -0.194678 2.634034 4.555976 -0.194690 1.976030 3.416077 -0.165666 3.338606 16.288711 -3.777879 7.549011 -5.578975 -8.208586 -5.666473 -3.536736 4.458276 8.226240 10.569839 74.860573 28.257758 13.789583 12.421900 -10.703664 13.431769 -24.924831 -4.505525 -5.009439 -4.703282 0.216003 -0.789666 -77.020720 -43.040551 -3.652032 -13.650452 2.874927 19.563440 18.862671 5.711673 -10.363225 0.959390 -4.464884 52.387849 -20.737420 -1.331337 10.284151 7.868327 2.925952 -9.556245 13.513946 10.766270 9.535871 -10.687487 -0.477006 6.864046 1.216477 10.512104 -9.336478 10.848786 -0.010551 -0.085234 0.134327
